<svg version="1.1" xmlns="http://www.w3.org/2000/svg" viewBox="0 0 2029.9601004464291 263.6484375" width="2029.9601004464291" height="263.6484375">
  <!-- svg-source:excalidraw -->
  
  <defs>
    <style class="style-fonts">
      @font-face {
        font-family: "Virgil";
        src: url("https://excalidraw.com/Virgil.woff2");
      }
      @font-face {
        font-family: "Cascadia";
        src: url("https://excalidraw.com/Cascadia.woff2");
      }
      @font-face {
        font-family: "Assistant";
        src: url("https://excalidraw.com/Assistant-Regular.woff2");
      }
    </style>
    
  </defs>
  <rect x="0" y="0" width="2029.9601004464291" height="263.6484375" fill="#ffffff"></rect><g stroke-linecap="round" transform="translate(927.4921875 10) rotate(0 89.02734375 121.82421875)"><path d="M32 0 C59.19 1.03, 88.88 -0.66, 146.05 0 M32 0 C64.6 0.97, 95.19 -0.69, 146.05 0 M146.05 0 C167.97 0.1, 179.72 8.91, 178.05 32 M146.05 0 C165.49 -0.12, 178.53 10.37, 178.05 32 M178.05 32 C174.94 68.01, 175.2 104.38, 178.05 211.65 M178.05 32 C179.23 71.31, 179.34 110.72, 178.05 211.65 M178.05 211.65 C176.09 233.67, 167.1 243.57, 146.05 243.65 M178.05 211.65 C179.07 230.75, 166.51 242.11, 146.05 243.65 M146.05 243.65 C113.8 243.15, 77.82 241.72, 32 243.65 M146.05 243.65 C109.24 244.8, 71.1 244.63, 32 243.65 M32 243.65 C9.21 244.14, -0.68 233.44, 0 211.65 M32 243.65 C8.41 245.66, -1.59 232.4, 0 211.65 M0 211.65 C0.3 144.7, 1.07 81.31, 0 32 M0 211.65 C-0.99 164.24, -1.4 115.84, 0 32 M0 32 C-0.31 8.78, 10.01 1.69, 32 0 M0 32 C1.58 10.25, 10.95 -0.79, 32 0" stroke="#1e1e1e" stroke-width="2" fill="none"></path></g><g transform="translate(954.28125 35.08984375) rotate(0 58.59375 12)"><text x="0" y="19.3125" font-family="Cascadia, Segoe UI Emoji" font-size="20px" fill="#1e1e1e" text-anchor="start" style="white-space: pre;" direction="ltr" dominant-baseline="alphabetic">PostgreSQL</text></g><g stroke-linecap="round" transform="translate(401.82421875 80.71484375) rotate(0 137.11328125 55.505859375)"><path d="M27.75 0 C83.64 -3.21, 140.52 -1.63, 246.47 0 M27.75 0 C82.95 0.22, 138.39 -0.95, 246.47 0 M246.47 0 C264.12 -1.18, 274.13 10.68, 274.23 27.75 M246.47 0 C262.92 -0.6, 275.24 6.98, 274.23 27.75 M274.23 27.75 C272.51 42.07, 275.96 53.39, 274.23 83.26 M274.23 27.75 C275.3 43.62, 274.96 58.97, 274.23 83.26 M274.23 83.26 C275.98 102.58, 266.1 111.98, 246.47 111.01 M274.23 83.26 C274.16 100.7, 265.76 112.52, 246.47 111.01 M246.47 111.01 C174.2 111.14, 106.23 111.68, 27.75 111.01 M246.47 111.01 C174.13 111.68, 99.86 112, 27.75 111.01 M27.75 111.01 C8.03 110.68, -0.4 102.8, 0 83.26 M27.75 111.01 C11.06 111.76, 1.32 102.34, 0 83.26 M0 83.26 C0.94 69.94, -0.24 60.43, 0 27.75 M0 83.26 C0.54 61.86, 0.55 39.58, 0 27.75 M0 27.75 C0.23 10.91, 9.61 1.42, 27.75 0 M0 27.75 C-1.61 10.5, 11.17 -1, 27.75 0" stroke="#1e1e1e" stroke-width="2" fill="none"></path></g><g transform="translate(473.5546875 123.65234375) rotate(0 70.3125 12)"><text x="0" y="19.3125" font-family="Cascadia, Segoe UI Emoji" font-size="20px" fill="#1e1e1e" text-anchor="start" style="white-space: pre;" direction="ltr" dominant-baseline="alphabetic">ETL Pipeline</text></g><g stroke-linecap="round" transform="translate(1344.71875 78.48046875) rotate(0 137.11328125 55.505859375)"><path d="M27.75 0 C80.05 -0.97, 131.68 1.14, 246.47 0 M27.75 0 C82.49 -2.42, 135.58 -2.28, 246.47 0 M246.47 0 C264.85 -1.88, 274.72 9.88, 274.23 27.75 M246.47 0 C265.95 -2.15, 273.29 7.42, 274.23 27.75 M274.23 27.75 C274.05 38.84, 273.62 53.52, 274.23 83.26 M274.23 27.75 C275.08 41.5, 275.46 54.1, 274.23 83.26 M274.23 83.26 C275.17 101.34, 263.09 110.82, 246.47 111.01 M274.23 83.26 C273.57 101.19, 264.55 110.66, 246.47 111.01 M246.47 111.01 C201.1 112.71, 154.13 112.66, 27.75 111.01 M246.47 111.01 C181.94 110.55, 117.76 110.45, 27.75 111.01 M27.75 111.01 C10.31 112.26, 0.92 100.08, 0 83.26 M27.75 111.01 C9.53 109.1, 1.1 101.57, 0 83.26 M0 83.26 C1.29 67.76, 1.49 49.16, 0 27.75 M0 83.26 C-0.6 70.57, -0.3 56.07, 0 27.75 M0 27.75 C-0.5 10.74, 7.32 -1.39, 27.75 0 M0 27.75 C2.18 7.61, 10.15 -0.27, 27.75 0" stroke="#1e1e1e" stroke-width="2" fill="none"></path></g><g stroke-linecap="round"><g transform="translate(684.76953125 134.3295371620411) rotate(0 114.46875 0.6039995826222366)"><path d="M0.29 0.32 C38.37 0.42, 191.45 0.63, 229.51 0.87 M-1.02 -0.56 C36.87 -0.31, 190.73 2.19, 228.87 2.22" stroke="#1e1e1e" stroke-width="2" fill="none"></path></g><g transform="translate(684.76953125 134.3295371620411) rotate(0 114.46875 0.6039995826222366)"><path d="M205.3 10.55 C214.89 8.24, 222.87 3.66, 228.87 2.22 M205.3 10.55 C212.45 8.29, 220.75 5.96, 228.87 2.22" stroke="#1e1e1e" stroke-width="2" fill="none"></path></g><g transform="translate(684.76953125 134.3295371620411) rotate(0 114.46875 0.6039995826222366)"><path d="M205.46 -6.55 C215.03 -2.27, 222.95 -0.26, 228.87 2.22 M205.46 -6.55 C212.6 -2.93, 220.84 0.61, 228.87 2.22" stroke="#1e1e1e" stroke-width="2" fill="none"></path></g></g><mask></mask><g stroke-linecap="round"><g transform="translate(1117.05078125 134.43359375) rotate(0 109.8984375 -0.63671875)"><path d="M0.77 -0.48 C37.58 -0.61, 184.43 -1.04, 220.86 -0.98 M-0.29 -1.77 C36.45 -2.27, 184.04 -2.94, 220.47 -2.95" stroke="#1e1e1e" stroke-width="2" fill="none"></path></g><g transform="translate(1117.05078125 134.43359375) rotate(0 109.8984375 -0.63671875)"><path d="M197 5.67 C203.28 4.7, 211.62 -0.45, 220.47 -2.95 M197 5.67 C206.7 1.47, 216.41 -0.71, 220.47 -2.95" stroke="#1e1e1e" stroke-width="2" fill="none"></path></g><g transform="translate(1117.05078125 134.43359375) rotate(0 109.8984375 -0.63671875)"><path d="M196.95 -11.43 C203.22 -7.26, 211.57 -7.27, 220.47 -2.95 M196.95 -11.43 C206.55 -8.86, 216.27 -4.27, 220.47 -2.95" stroke="#1e1e1e" stroke-width="2" fill="none"></path></g></g><mask></mask><g transform="translate(1433.02734375 121.9609375) rotate(0 41.015625 12)"><text x="0" y="19.3125" font-family="Cascadia, Segoe UI Emoji" font-size="20px" fill="#1e1e1e" text-anchor="start" style="white-space: pre;" direction="ltr" dominant-baseline="alphabetic">Next.js</text></g><g stroke-linecap="round" transform="translate(10 45.19921875) rotate(0 107.005859375 96.076171875)"><path d="M135 24.25 C153.95 41.14, 169.73 57.2, 187.01 72.75 M135 24.25 C145.13 34.56, 156.89 45.77, 187.01 72.75 M187.01 72.75 C214.07 95.87, 212.3 97.32, 187.01 121.25 M187.01 72.75 C212.03 96.86, 215.89 98.68, 187.01 121.25 M187.01 121.25 C169.81 135.18, 152.46 152.37, 135 167.9 M187.01 121.25 C172.08 133.89, 158.45 148.07, 135 167.9 M135 167.9 C109.14 191.85, 107.07 191.57, 81 167.9 M135 167.9 C108.6 191.15, 107.79 191.93, 81 167.9 M81 167.9 C66.21 156.76, 53.87 143.81, 27 121.25 M81 167.9 C66.19 156.74, 53.11 142.48, 27 121.25 M27 121.25 C-0.56 97.78, -1.36 95.15, 27 72.75 M27 121.25 C0.67 97.57, 0.73 95.34, 27 72.75 M27 72.75 C47.53 55.19, 66.36 38.25, 81 24.25 M27 72.75 C37.49 62.33, 48.98 51.98, 81 24.25 M81 24.25 C109.48 -0.59, 107.06 -0.25, 135 24.25 M81 24.25 C109.79 -1.47, 107.61 -0.57, 135 24.25" stroke="#1e1e1e" stroke-width="2" fill="none"></path></g><g transform="translate(70.1279296875 117.2373046875) rotate(0 46.875 24)"><text x="46.875" y="19.3125" font-family="Cascadia, Segoe UI Emoji" font-size="20px" fill="#1e1e1e" text-anchor="middle" style="white-space: pre;" direction="ltr" dominant-baseline="alphabetic">RPC</text><text x="46.875" y="43.3125" font-family="Cascadia, Segoe UI Emoji" font-size="20px" fill="#1e1e1e" text-anchor="middle" style="white-space: pre;" direction="ltr" dominant-baseline="alphabetic">Endpoint</text></g><g stroke-linecap="round"><g transform="translate(390.04296875 127.81640625) rotate(0 -90.421875 -13.48046875)"><path d="M0.27 -0.45 C-13.93 -4.8, -55.54 -26.36, -85.77 -27.15 C-115.99 -27.94, -165.43 -8.51, -181.08 -5.16 M-1.05 -1.73 C-15.28 -5.8, -56.1 -24.85, -86.25 -25.71 C-116.4 -26.57, -165.94 -10.13, -181.97 -6.9" stroke="#1e1e1e" stroke-width="2" fill="none"></path></g><g transform="translate(390.04296875 127.81640625) rotate(0 -90.421875 -13.48046875)"><path d="M-161.33 -21.02 C-167.46 -15.9, -172.29 -14.16, -181.97 -6.9 M-161.33 -21.02 C-169.55 -16.34, -177.74 -10.46, -181.97 -6.9" stroke="#1e1e1e" stroke-width="2" fill="none"></path></g><g transform="translate(390.04296875 127.81640625) rotate(0 -90.421875 -13.48046875)"><path d="M-157.09 -4.45 C-164.15 -3.55, -170.07 -6.03, -181.97 -6.9 M-157.09 -4.45 C-167.15 -6.36, -177.03 -7.04, -181.97 -6.9" stroke="#1e1e1e" stroke-width="2" fill="none"></path></g></g><mask></mask><g stroke-linecap="round"><g transform="translate(206.52734375 175.19140625) rotate(0 92.146484375 12.181640625)"><path d="M0.17 -0.89 C15.1 4.36, 58.29 34.02, 88.98 32.65 C119.68 31.28, 168.44 -2.14, 184.36 -9.11 M-1.2 1.26 C13.7 7.22, 57.66 35.83, 88.47 34.24 C119.27 32.65, 167.56 -1.14, 183.64 -8.28" stroke="#1e1e1e" stroke-width="2" fill="none"></path></g><g transform="translate(206.52734375 175.19140625) rotate(0 92.146484375 12.181640625)"><path d="M167.19 10.55 C169.62 7.21, 175.35 1.26, 183.64 -8.28 M167.19 10.55 C170.36 6.58, 173.72 2.32, 183.64 -8.28" stroke="#1e1e1e" stroke-width="2" fill="none"></path></g><g transform="translate(206.52734375 175.19140625) rotate(0 92.146484375 12.181640625)"><path d="M158.94 -4.43 C163.57 -4.05, 171.36 -6.26, 183.64 -8.28 M158.94 -4.43 C163.98 -4.98, 169.18 -5.9, 183.64 -8.28" stroke="#1e1e1e" stroke-width="2" fill="none"></path></g></g><mask></mask><g stroke-linecap="round" transform="translate(1944.96484375 78.83984375) rotate(0 18.046875 17.11328125)"><path d="M18.56 -0.29 C22.2 -0.5, 27 1.16, 29.91 3.64 C32.81 6.11, 35.37 10.8, 36 14.56 C36.62 18.31, 35.64 23.11, 33.66 26.17 C31.67 29.23, 27.68 31.77, 24.06 32.93 C20.44 34.09, 15.5 34.35, 11.95 33.12 C8.39 31.89, 4.64 28.73, 2.73 25.56 C0.82 22.38, -0.08 17.67, 0.5 14.07 C1.07 10.47, 3.12 6.3, 6.18 3.94 C9.24 1.58, 16.48 0.52, 18.86 -0.08 C21.24 -0.69, 20.37 0.05, 20.46 0.31 M17.98 0.27 C21.66 -0.06, 26.6 1.47, 29.64 3.62 C32.67 5.77, 35.58 9.5, 36.21 13.17 C36.84 16.84, 35.36 22.22, 33.42 25.64 C31.49 29.06, 28.04 32.29, 24.62 33.69 C21.21 35.08, 16.52 35.23, 12.94 33.99 C9.35 32.75, 5.21 29.53, 3.11 26.25 C1.01 22.97, -0.14 17.87, 0.34 14.32 C0.83 10.76, 3.21 7.27, 6.02 4.92 C8.82 2.57, 15.36 1.04, 17.19 0.21 C19.02 -0.61, 16.93 -0.31, 17 -0.02" stroke="#1e1e1e" stroke-width="2" fill="none"></path></g><g stroke-linecap="round"><g transform="translate(1967.43359375 119.1484375) rotate(0 0.33984375 22.44921875)"><path d="M0 -0.27 C-0.01 7.17, 0.22 37.37, 0.36 44.9 M-0.66 0.78 C-0.53 8.29, 1.23 38.15, 1.43 45.6" stroke="#1e1e1e" stroke-width="2" fill="none"></path></g></g><mask></mask><g stroke-linecap="round"><g transform="translate(1636.40625 150.86328125) rotate(0 123.814453125 23.810546875)"><path d="M0.64 -0.92 C21.76 6.81, 86.74 45.83, 127.87 46.71 C168.99 47.6, 227.27 11.34, 247.38 4.39 M-0.48 1.21 C20.46 9.04, 86.31 47.59, 127.47 47.77 C168.63 47.96, 226.19 9.77, 246.49 2.31" stroke="#1e1e1e" stroke-width="2" fill="none"></path></g><g transform="translate(1636.40625 150.86328125) rotate(0 123.814453125 23.810546875)"><path d="M229.14 20.31 C234.49 14.77, 241.45 5.42, 246.49 2.31 M229.14 20.31 C235.13 14.02, 240.96 8.05, 246.49 2.31" stroke="#1e1e1e" stroke-width="2" fill="none"></path></g><g transform="translate(1636.40625 150.86328125) rotate(0 123.814453125 23.810546875)"><path d="M221.63 4.95 C230.02 5.51, 239.98 2.3, 246.49 2.31 M221.63 4.95 C230.31 3.85, 238.71 3.14, 246.49 2.31" stroke="#1e1e1e" stroke-width="2" fill="none"></path></g></g><mask></mask><g stroke-linecap="round"><g transform="translate(1891.1796875 116.70703125) rotate(0 -129.751953125 -17.5390625)"><path d="M-0.68 1.12 C-22.9 -4.95, -89.48 -37.75, -132.55 -37.46 C-175.62 -37.17, -238.03 -3.79, -259.11 2.87 M1.16 0.66 C-21.23 -5.67, -89.66 -39.9, -133.13 -39.31 C-176.6 -38.73, -238.76 -2.94, -259.66 4.17" stroke="#1e1e1e" stroke-width="2" fill="none"></path></g><g transform="translate(1891.1796875 116.70703125) rotate(0 -129.751953125 -17.5390625)"><path d="M-241.58 -13.09 C-246.45 -5.75, -254.04 0.03, -259.66 4.17 M-241.58 -13.09 C-246.51 -8.67, -253.06 -3.16, -259.66 4.17" stroke="#1e1e1e" stroke-width="2" fill="none"></path></g><g transform="translate(1891.1796875 116.70703125) rotate(0 -129.751953125 -17.5390625)"><path d="M-234.71 2.57 C-241.94 4.18, -252.03 4.26, -259.66 4.17 M-234.71 2.57 C-241.75 2.3, -250.35 3.15, -259.66 4.17" stroke="#1e1e1e" stroke-width="2" fill="none"></path></g></g><mask></mask><g transform="translate(1926.2101004464291 194.7371651785702) rotate(0 46.875 12)"><text x="0" y="19.3125" font-family="Cascadia, Segoe UI Emoji" font-size="20px" fill="#1e1e1e" text-anchor="start" style="white-space: pre;" direction="ltr" dominant-baseline="alphabetic">End-user</text></g></svg>